# xmcd
#
# Track frame offsets: 
#        150
#        13233
#        24367
#        37910
#        49548
#        59991
#        73770
#        85509
#        98094
#        108472
#        119610
#        133722
#        144145
#        155575
#        167467
#        178685
#        188970
#        200636
#        210383
#        221155
#        231265
#        242731
#        254742
#        265173
#        276698
#        287400
#        302648
#        312378
#        326523
#        337148
#
# Disc length: 4658 seconds
#
# Revision: 0
# Processed by: cddbd v1.5.2PL0 Copyright (c) Steve Scherf et al.
# Submitted via: ExactAudioCopy v0.95b4
#
DISCID=cb12301e
DTITLE=Wanda Jackson - The Ballads of Wanda Jackson
DYEAR=2007
DGENRE=Country
TTITLE0=The tip of my fingers
TTITLE1=In the middle of a heartache
TTITLE2=The last letter
TTITLE3=I may never get to heaven
TTITLE4=I need you now
TTITLE5=We could
TTITLE6=Sinful heart
TTITLE7=Heartbreak ahead
TTITLE8=Please call today
TTITLE9=Little charm bracelet
TTITLE10=Just call me lonesome
TTITLE11=Making believe
TTITLE12=I'd rather have you
TTITLE13=Right or wrong
TTITLE14=Just queen for a day
TTITLE15=Is it wrong
TTITLE16=Don't ask me why
TTITLE17=Let me talk to you
TTITLE18=I can't make my dreams understand
TTITLE19=A date with Jerry
TTITLE20=Why I'm walkin'
TTITLE21=I cried again
TTITLE22=Between the window and the phone
TTITLE23=If I cried every time you hurt me
TTITLE24=One teardrop at a time
TTITLE25=Little things mean a lot
TTITLE26=Have you ever been lonely
TTITLE27=Day dreaming
TTITLE28=So soon
TTITLE29=May you never be alone
EXTD=
EXTT0=
EXTT1=
EXTT2=
EXTT3=
EXTT4=
EXTT5=
EXTT6=
EXTT7=
EXTT8=
EXTT9=
EXTT10=
EXTT11=
EXTT12=
EXTT13=
EXTT14=
EXTT15=
EXTT16=
EXTT17=
EXTT18=
EXTT19=
EXTT20=
EXTT21=
EXTT22=
EXTT23=
EXTT24=
EXTT25=
EXTT26=
EXTT27=
EXTT28=
EXTT29=
PLAYORDER=
